<?xml version="1.0" encoding="UTF-8" standalone="no"?>
<!-- Created with Inkscape (http://www.inkscape.org/) -->

<svg
   version="1.1"
   id="svg1"
   width="178.164"
   height="71.994667"
   viewBox="0 0 178.164 71.994667"
   xmlns="http://www.w3.org/2000/svg"
   xmlns:svg="http://www.w3.org/2000/svg">
  <defs
     id="defs1" />
  <g
     id="g1">
    <path
       id="path2"
       d="m -0.0086,-27.76805 -20.02398,11.56001 c -0.0048,0.0027 -0.0048,0.0072 0,0.0099 l 20.02398,11.56 c 0.00474,0.00274 0.01246,0.00274 0.0172,0 l 20.02398,-11.56 c 0.0048,-0.0027 0.0048,-0.0072 0,-0.0099 L 0.0086,-27.76805 c -0.00474,-0.0027 -0.01246,-0.0027 -0.0172,0 z"
       style="fill:#808080;fill-opacity:0.3;fill-rule:nonzero;stroke:none"
       transform="matrix(1.3333333,0,0,-1.3333333,28.942667,33.074667)" />
    <path
       id="path3"
       d="m -0.0086,0.00496 -20.02398,11.56001 c -0.0048,0.0027 -0.0048,0.0072 0,0.0099 l 20.02398,11.56 c 0.00474,0.0027 0.01246,0.0027 0.0172,0 l 20.02398,-11.56 c 0.0048,-0.0028 0.0048,-0.0072 0,-0.0099 L 0.0086,0.00496 c -0.00474,-0.00273 -0.01246,-0.00273 -0.0172,0 z"
       style="fill:#9558b2;fill-opacity:1;fill-rule:nonzero;stroke:none"
       transform="matrix(1.3333333,0,0,-1.3333333,28.942667,33.074667)" />
    <path
       id="path4"
       d="M -0.0086,0.00496 -10.01196,5.78 c -0.0048,0.00273 -0.0048,0.0072 0,0.00993 l 20.02394,11.56002 c 0.0048,0.0027 0.01248,0.0027 0.01724,0 l 10.00336,-5.77503 c 0.0048,-0.0028 0.0048,-0.0072 0,-0.0099 L 0.0086,0.00496 c -0.00474,-0.00273 -0.01246,-0.00273 -0.0172,0 z"
       style="fill:#389826;fill-opacity:1;fill-rule:nonzero;stroke:none"
       transform="matrix(1.3333333,0,0,-1.3333333,28.942667,33.074667)" />
    <path
       id="path5"
       d="m -0.0086,0.00496 -20.02398,11.56001 c -0.0048,0.0027 -0.0048,0.0072 0,0.0099 l 20.02398,11.56 c 0.00474,0.0027 0.01246,0.0027 0.0172,0 l 20.02398,-11.56 c 0.0048,-0.0028 0.0048,-0.0072 0,-0.0099 L 0.0086,0.00496 c -0.00474,-0.00273 -0.01246,-0.00273 -0.0172,0 z"
       style="fill:#ffffff;fill-opacity:0.2;fill-rule:nonzero;stroke:#000000;stroke-width:0.49814;stroke-linecap:butt;stroke-linejoin:miter;stroke-miterlimit:10;stroke-dasharray:none;stroke-opacity:1"
       transform="matrix(1.3333333,0,0,-1.3333333,28.942667,33.074667)" />
    <path
       id="path6"
       d="M -10.02058,5.78497 10.0206,17.35492"
       style="fill:none;stroke:#000000;stroke-width:0.49814;stroke-linecap:butt;stroke-linejoin:miter;stroke-miterlimit:10;stroke-dasharray:none;stroke-opacity:1"
       transform="matrix(1.3333333,0,0,-1.3333333,28.942667,33.074667)" />
    <path
       id="path7"
       d="M 0,11.56995 10.02058,5.78497"
       style="fill:none;stroke:#000000;stroke-width:0.49814;stroke-linecap:butt;stroke-linejoin:miter;stroke-miterlimit:10;stroke-dasharray:none;stroke-opacity:1"
       transform="matrix(1.3333333,0,0,-1.3333333,28.942667,33.074667)" />
    <path
       id="path8"
       d="M 0,-0.00995 V -23.1308 c 0,-0.0055 -0.00386,-0.0077 -0.0086,-0.005 l -20.02398,11.56001 c -0.0048,0.0027 -0.0086,0.0094 -0.0086,0.01493 v 23.12083 c 0,0.0055 0.0039,0.0077 0.0086,0.005 L -0.0086,0.00496 C -0.00386,0.00223 0,-0.00446 0,-0.00995 Z"
       style="fill:#9558b2;fill-opacity:1;fill-rule:nonzero;stroke:none"
       transform="matrix(1.3333333,0,0,-1.3333333,28.942667,33.074667)" />
    <path
       id="path9"
       d="m 0,-0.00995 v -11.55046 c 0,-0.0055 -0.00386,-0.0077 -0.0086,-0.005 l -10.00336,5.77504 c -0.0048,0.00273 -0.0086,0.00943 -0.0086,0.01492 V 5.775 c 0,0.00549 0.0039,0.00772 0.0086,0.00499 L -0.0086,0.00496 C -0.00386,0.00223 0,-0.00446 0,-0.00995 Z"
       style="fill:#389826;fill-opacity:1;fill-rule:nonzero;stroke:none"
       transform="matrix(1.3333333,0,0,-1.3333333,28.942667,33.074667)" />
    <path
       id="path10"
       d="m 0,-11.58032 v -11.55046 c 0,-0.0055 -0.00386,-0.0077 -0.0086,-0.005 l -10.00336,5.77502 c -0.0048,0.0027 -0.0086,0.0095 -0.0086,0.01494 v 11.55046 c 0,0.00549 0.0039,0.00772 0.0086,0.00499 L -0.0086,-11.5654 C -0.00386,-11.56813 0,-11.57484 0,-11.58032 Z"
       style="fill:#cb3c33;fill-opacity:1;fill-rule:nonzero;stroke:none"
       transform="matrix(1.3333333,0,0,-1.3333333,28.942667,33.074667)" />
    <path
       id="path11"
       d="M 0,-0.00995 V -23.1308 c 0,-0.0055 -0.00386,-0.0077 -0.0086,-0.005 l -20.02398,11.56001 c -0.0048,0.0027 -0.0086,0.0094 -0.0086,0.01493 v 23.12083 c 0,0.0055 0.0039,0.0077 0.0086,0.005 L -0.0086,0.00496 C -0.00386,0.00223 0,-0.00446 0,-0.00995 Z"
       style="fill:none;stroke:#000000;stroke-width:0.49814;stroke-linecap:butt;stroke-linejoin:miter;stroke-miterlimit:10;stroke-dasharray:none;stroke-opacity:1"
       transform="matrix(1.3333333,0,0,-1.3333333,28.942667,33.074667)" />
    <path
       id="path12"
       d="M -10.02058,5.78497 V -17.35579"
       style="fill:none;stroke:#000000;stroke-width:0.49814;stroke-linecap:butt;stroke-linejoin:miter;stroke-miterlimit:10;stroke-dasharray:none;stroke-opacity:1"
       transform="matrix(1.3333333,0,0,-1.3333333,28.942667,33.074667)" />
    <path
       id="path13"
       d="M -10.02058,-5.7854 0,-11.57037"
       style="fill:none;stroke:#000000;stroke-width:0.49814;stroke-linecap:butt;stroke-linejoin:miter;stroke-miterlimit:10;stroke-dasharray:none;stroke-opacity:1"
       transform="matrix(1.3333333,0,0,-1.3333333,28.942667,33.074667)" />
    <path
       id="path14"
       d="M 0,-0.00995 V -23.1308 c 0,-0.0055 0.00386,-0.0077 0.0086,-0.005 l 20.02398,11.56001 c 0.0048,0.0027 0.0086,0.0094 0.0086,0.01493 v 23.12083 c 0,0.0055 -0.0039,0.0077 -0.0086,0.005 L 0.0086,0.00496 C 0.00386,0.00223 0,-0.00446 0,-0.00995 Z"
       style="fill:#9558b2;fill-opacity:1;fill-rule:nonzero;stroke:none"
       transform="matrix(1.3333333,0,0,-1.3333333,28.942667,33.074667)" />
    <path
       id="path15"
       d="m 0,-0.00995 v -11.55046 c 0,-0.0055 0.00386,-0.0077 0.0086,-0.005 L 20.03258,-0.0054 c 0.0048,0.00273 0.0086,0.00943 0.0086,0.01491 v 11.55046 c 0,0.0055 -0.0039,0.0077 -0.0086,0.005 L 0.0086,0.00496 C 0.00386,0.00223 0,-0.00446 0,-0.00995 Z"
       style="fill:#389826;fill-opacity:1;fill-rule:nonzero;stroke:none"
       transform="matrix(1.3333333,0,0,-1.3333333,28.942667,33.074667)" />
    <path
       id="path16"
       d="m 0,-11.58032 v -11.55046 c 0,-0.0055 0.00386,-0.0077 0.0086,-0.005 l 20.02398,11.56001 c 0.0048,0.0027 0.0086,0.0094 0.0086,0.01492 v 11.55046 c 0,0.0055 -0.0039,0.00772 -0.0086,0.00499 L 0.0086,-11.5654 C 0.00386,-11.56813 0,-11.57484 0,-11.58032 Z"
       style="fill:#cb3c33;fill-opacity:1;fill-rule:nonzero;stroke:none"
       transform="matrix(1.3333333,0,0,-1.3333333,28.942667,33.074667)" />
    <path
       id="path17"
       d="M 0,-0.00995 V -23.1308 c 0,-0.0055 0.00386,-0.0077 0.0086,-0.005 l 20.02398,11.56001 c 0.0048,0.0027 0.0086,0.0094 0.0086,0.01493 v 23.12083 c 0,0.0055 -0.0039,0.0077 -0.0086,0.005 L 0.0086,0.00496 C 0.00386,0.00223 0,-0.00446 0,-0.00995 Z"
       style="fill:#000000;fill-opacity:0.2;fill-rule:nonzero;stroke:#000000;stroke-width:0.49814;stroke-linecap:butt;stroke-linejoin:miter;stroke-miterlimit:10;stroke-dasharray:none;stroke-opacity:1"
       transform="matrix(1.3333333,0,0,-1.3333333,28.942667,33.074667)" />
    <path
       id="path18"
       d="M 0,-11.57037 20.0412,-4.1e-4"
       style="fill:none;stroke:#000000;stroke-width:0.49814;stroke-linecap:butt;stroke-linejoin:miter;stroke-miterlimit:10;stroke-dasharray:none;stroke-opacity:1"
       transform="matrix(1.3333333,0,0,-1.3333333,28.942667,33.074667)" />
    <path
       id="path19"
       d="M 10.02058,-5.7854 V 5.78497"
       style="fill:none;stroke:#000000;stroke-width:0.49814;stroke-linecap:butt;stroke-linejoin:miter;stroke-miterlimit:10;stroke-dasharray:none;stroke-opacity:1"
       transform="matrix(1.3333333,0,0,-1.3333333,28.942667,33.074667)" />
    <path
       id="path20"
       d="M 0.53866406,-9.140625e-4 H 3.0816328 l 1.125,-4.1835937375 h 6.1054692 l 1.125,4.1835937375 H 13.98007 L 9.0113203,-17.180602 H 5.5074141 Z M 4.8277266,-6.4931016 7.1480391,-15.106383 h 0.2226562 l 2.3203125,8.6132814 z M 19.385344,-9.140625e-4 H 21.95175 V -7.7470078 h 5.25 v -2.25 h -5.25 v -1.8632812 c 0,-2.835938 1.136719,-4.242188 3.433594,-4.242188 0.726562,0 1.453125,0.05859 2.472656,0.175782 l 0.269531,-2.226563 c -0.902343,-0.175781 -1.699218,-0.246094 -2.660156,-0.246094 -4.066406,0 -6.082031,2.203125 -6.082031,6.65625 v 1.7460942 h -4.042969 v 2.25 h 4.042969 z m 11.592773,0 H 42.380461 V -2.2509141 H 38.431242 V -12.832945 H 31.70468 v 2.25 h 4.160156 v 8.3320309 H 30.978117 Z M 37.071867,-14.860289 c 0.984375,0 1.792969,-0.796875 1.792969,-1.792969 0,-0.996094 -0.808594,-1.792969 -1.792969,-1.792969 -0.996094,0 -1.792969,0.796875 -1.792969,1.792969 0,0.996094 0.796875,1.792969 1.792969,1.792969 z M 53.492766,-9.140625e-4 h 2.566406 V -8.3563828 c 0,-3.0000002 -1.546875,-4.7109372 -4.265625,-4.7109372 -2.15625,0 -3.246094,0.84375 -3.386719,2.566406 h -0.28125 l -0.199219,-2.332031 H 45.594328 V -9.140625e-4 h 2.566406 V -7.2079453 c 0,-2.390625 1.019532,-3.5624997 3.035157,-3.5624997 1.453125,0 2.296875,0.8671872 2.296875,2.4140622 z M 66.471281,0.24517969 c 0.960938,0 2.226563,-0.046875 3.75,-0.33984375 L 69.904875,-2.3446641 c -1.066406,0.2109375 -2.085937,0.3398438 -3.152344,0.3398438 -2.578125,0 -4.195312,-1.125 -4.640625,-3.2695313 h 8.660157 c 0.04687,-0.515625 0.07031,-1.0429687 0.07031,-1.6523437 0,-3.9960937 -1.980469,-6.1406247 -5.4375,-6.1406247 -3.679687,0 -5.789062,2.4375 -5.789062,6.6328122 0,4.3007812 2.472656,6.67968749 6.855468,6.67968749 z M 62.018156,-7.2431016 c 0.199219,-2.2851562 1.417969,-3.5742184 3.410157,-3.5742184 1.933593,0 3.09375,1.2773434 3.09375,3.5742184 z m 0,0"
       style="fill:#000000;fill-opacity:1;fill-rule:nonzero;stroke:#ffffff;stroke-width:0.99975002;stroke-dasharray:none;stroke-opacity:1;paint-order:markers stroke fill;stroke-linecap:round;stroke-linejoin:round"
       aria-label="Afine"
       transform="matrix(1.3333333,0,0,1.3333333,60.356,45.552)" />
    <path
       id="path21"
       d="M 0.78599219,2.0968203 1.5359922,2.0499453 C 3.1766172,1.9327578 3.8914609,1.2413516 3.8914609,-0.41099219 V -4.6414609 H 1.1609922 v 0.8203125 h 1.8046875 v 3.55078121 c 0,0.94921875 -0.4101563,1.38281249 -1.3476563,1.46484379 L 0.75083594,1.2765078 Z M 3.3289609,-5.3797422 c 0.3632813,0 0.6445313,-0.28125 0.6445313,-0.6445312 0,-0.3632813 -0.28125,-0.6445313 -0.6445313,-0.6445313 -0.3632812,0 -0.6445312,0.28125 -0.6445312,0.6445313 0,0.3632812 0.28125,0.6445312 0.6445312,0.6445312 z m 5.241211,5.46093751 c 0.5039062,0 0.9140625,-0.046875 1.3828125,-0.17578125 l -0.1054688,-0.8203125 c -0.3867187,0.1171875 -0.6679687,0.1640625 -0.9257812,0.1640625 -0.796875,0 -0.9492188,-0.30468746 -0.9492188,-1.04296876 V -6.5633359 H 5.6873594 v 0.8085937 h 1.359375 v 4.0078125 c 0,1.27734376 0.4453125,1.82812501 1.5234375,1.82812501 z m 0,0"
       style="fill:#4063d8;fill-opacity:1;fill-rule:nonzero;stroke:#ffffff;stroke-width:0.99975002;stroke-dasharray:none;stroke-opacity:1;paint-order:markers stroke fill;stroke-linecap:round;stroke-linejoin:round"
       aria-label="jl"
       transform="matrix(1.3333333,0,0,1.3333333,157.17467,49.825333)" />
  </g>
</svg>
