<?xml version="1.0" encoding="UTF-8" standalone="no"?>
<!-- Created with Inkscape (http://www.inkscape.org/) -->

<svg
   version="1.1"
   id="svg1"
   width="182.59067"
   height="71.994667"
   viewBox="0 0 182.59067 71.994667"
   xmlns="http://www.w3.org/2000/svg"
   xmlns:svg="http://www.w3.org/2000/svg">
  <defs
     id="defs1" />
  <g
     id="g1">
    <path
       id="path2"
       d="m -0.0086,-27.76805 -20.02398,11.56001 c -0.0048,0.0027 -0.0048,0.0072 0,0.0099 l 20.02398,11.56 c 0.00474,0.00274 0.01246,0.00274 0.0172,0 l 20.02398,-11.56 c 0.0048,-0.0027 0.0048,-0.0072 0,-0.0099 L 0.0086,-27.76805 c -0.00474,-0.0027 -0.01246,-0.0027 -0.0172,0 z"
       style="fill:#808080;fill-opacity:0.3;fill-rule:nonzero;stroke:none"
       transform="matrix(1.3333333,0,0,-1.3333333,28.942667,33.074667)" />
    <path
       id="path3"
       d="m -0.0086,0.00496 -20.02398,11.56001 c -0.0048,0.0027 -0.0048,0.0072 0,0.0099 l 20.02398,11.56 c 0.00474,0.0027 0.01246,0.0027 0.0172,0 l 20.02398,-11.56 c 0.0048,-0.0028 0.0048,-0.0072 0,-0.0099 L 0.0086,0.00496 c -0.00474,-0.00273 -0.01246,-0.00273 -0.0172,0 z"
       style="fill:#9558b2;fill-opacity:1;fill-rule:nonzero;stroke:none"
       transform="matrix(1.3333333,0,0,-1.3333333,28.942667,33.074667)" />
    <path
       id="path4"
       d="M -0.0086,0.00496 -10.01196,5.78 c -0.0048,0.00273 -0.0048,0.0072 0,0.00993 l 20.02394,11.56002 c 0.0048,0.0027 0.01248,0.0027 0.01724,0 l 10.00336,-5.77503 c 0.0048,-0.0028 0.0048,-0.0072 0,-0.0099 L 0.0086,0.00496 c -0.00474,-0.00273 -0.01246,-0.00273 -0.0172,0 z"
       style="fill:#389826;fill-opacity:1;fill-rule:nonzero;stroke:none"
       transform="matrix(1.3333333,0,0,-1.3333333,28.942667,33.074667)" />
    <path
       id="path5"
       d="m -0.0086,0.00496 -20.02398,11.56001 c -0.0048,0.0027 -0.0048,0.0072 0,0.0099 l 20.02398,11.56 c 0.00474,0.0027 0.01246,0.0027 0.0172,0 l 20.02398,-11.56 c 0.0048,-0.0028 0.0048,-0.0072 0,-0.0099 L 0.0086,0.00496 c -0.00474,-0.00273 -0.01246,-0.00273 -0.0172,0 z"
       style="fill:#ffffff;fill-opacity:0.2;fill-rule:nonzero;stroke:#000000;stroke-width:0.49814;stroke-linecap:butt;stroke-linejoin:miter;stroke-miterlimit:10;stroke-dasharray:none;stroke-opacity:1"
       transform="matrix(1.3333333,0,0,-1.3333333,28.942667,33.074667)" />
    <path
       id="path6"
       d="M -10.02058,5.78497 10.0206,17.35492"
       style="fill:none;stroke:#000000;stroke-width:0.49814;stroke-linecap:butt;stroke-linejoin:miter;stroke-miterlimit:10;stroke-dasharray:none;stroke-opacity:1"
       transform="matrix(1.3333333,0,0,-1.3333333,28.942667,33.074667)" />
    <path
       id="path7"
       d="M 0,11.56995 10.02058,5.78497"
       style="fill:none;stroke:#000000;stroke-width:0.49814;stroke-linecap:butt;stroke-linejoin:miter;stroke-miterlimit:10;stroke-dasharray:none;stroke-opacity:1"
       transform="matrix(1.3333333,0,0,-1.3333333,28.942667,33.074667)" />
    <path
       id="path8"
       d="M 0,-0.00995 V -23.1308 c 0,-0.0055 -0.00386,-0.0077 -0.0086,-0.005 l -20.02398,11.56001 c -0.0048,0.0027 -0.0086,0.0094 -0.0086,0.01493 v 23.12083 c 0,0.0055 0.0039,0.0077 0.0086,0.005 L -0.0086,0.00496 C -0.00386,0.00223 0,-0.00446 0,-0.00995 Z"
       style="fill:#9558b2;fill-opacity:1;fill-rule:nonzero;stroke:none"
       transform="matrix(1.3333333,0,0,-1.3333333,28.942667,33.074667)" />
    <path
       id="path9"
       d="m 0,-0.00995 v -11.55046 c 0,-0.0055 -0.00386,-0.0077 -0.0086,-0.005 l -10.00336,5.77504 c -0.0048,0.00273 -0.0086,0.00943 -0.0086,0.01492 V 5.775 c 0,0.00549 0.0039,0.00772 0.0086,0.00499 L -0.0086,0.00496 C -0.00386,0.00223 0,-0.00446 0,-0.00995 Z"
       style="fill:#389826;fill-opacity:1;fill-rule:nonzero;stroke:none"
       transform="matrix(1.3333333,0,0,-1.3333333,28.942667,33.074667)" />
    <path
       id="path10"
       d="m 0,-11.58032 v -11.55046 c 0,-0.0055 -0.00386,-0.0077 -0.0086,-0.005 l -10.00336,5.77502 c -0.0048,0.0027 -0.0086,0.0095 -0.0086,0.01494 v 11.55046 c 0,0.00549 0.0039,0.00772 0.0086,0.00499 L -0.0086,-11.5654 C -0.00386,-11.56813 0,-11.57484 0,-11.58032 Z"
       style="fill:#cb3c33;fill-opacity:1;fill-rule:nonzero;stroke:none"
       transform="matrix(1.3333333,0,0,-1.3333333,28.942667,33.074667)" />
    <path
       id="path11"
       d="M 0,-0.00995 V -23.1308 c 0,-0.0055 -0.00386,-0.0077 -0.0086,-0.005 l -20.02398,11.56001 c -0.0048,0.0027 -0.0086,0.0094 -0.0086,0.01493 v 23.12083 c 0,0.0055 0.0039,0.0077 0.0086,0.005 L -0.0086,0.00496 C -0.00386,0.00223 0,-0.00446 0,-0.00995 Z"
       style="fill:none;stroke:#000000;stroke-width:0.49814;stroke-linecap:butt;stroke-linejoin:miter;stroke-miterlimit:10;stroke-dasharray:none;stroke-opacity:1"
       transform="matrix(1.3333333,0,0,-1.3333333,28.942667,33.074667)" />
    <path
       id="path12"
       d="M -10.02058,5.78497 V -17.35579"
       style="fill:none;stroke:#000000;stroke-width:0.49814;stroke-linecap:butt;stroke-linejoin:miter;stroke-miterlimit:10;stroke-dasharray:none;stroke-opacity:1"
       transform="matrix(1.3333333,0,0,-1.3333333,28.942667,33.074667)" />
    <path
       id="path13"
       d="M -10.02058,-5.7854 0,-11.57037"
       style="fill:none;stroke:#000000;stroke-width:0.49814;stroke-linecap:butt;stroke-linejoin:miter;stroke-miterlimit:10;stroke-dasharray:none;stroke-opacity:1"
       transform="matrix(1.3333333,0,0,-1.3333333,28.942667,33.074667)" />
    <path
       id="path14"
       d="M 0,-0.00995 V -23.1308 c 0,-0.0055 0.00386,-0.0077 0.0086,-0.005 l 20.02398,11.56001 c 0.0048,0.0027 0.0086,0.0094 0.0086,0.01493 v 23.12083 c 0,0.0055 -0.0039,0.0077 -0.0086,0.005 L 0.0086,0.00496 C 0.00386,0.00223 0,-0.00446 0,-0.00995 Z"
       style="fill:#9558b2;fill-opacity:1;fill-rule:nonzero;stroke:none"
       transform="matrix(1.3333333,0,0,-1.3333333,28.942667,33.074667)" />
    <path
       id="path15"
       d="m 0,-0.00995 v -11.55046 c 0,-0.0055 0.00386,-0.0077 0.0086,-0.005 L 20.03258,-0.0054 c 0.0048,0.00273 0.0086,0.00943 0.0086,0.01491 v 11.55046 c 0,0.0055 -0.0039,0.0077 -0.0086,0.005 L 0.0086,0.00496 C 0.00386,0.00223 0,-0.00446 0,-0.00995 Z"
       style="fill:#389826;fill-opacity:1;fill-rule:nonzero;stroke:none"
       transform="matrix(1.3333333,0,0,-1.3333333,28.942667,33.074667)" />
    <path
       id="path16"
       d="m 0,-11.58032 v -11.55046 c 0,-0.0055 0.00386,-0.0077 0.0086,-0.005 l 20.02398,11.56001 c 0.0048,0.0027 0.0086,0.0094 0.0086,0.01492 v 11.55046 c 0,0.0055 -0.0039,0.00772 -0.0086,0.00499 L 0.0086,-11.5654 C 0.00386,-11.56813 0,-11.57484 0,-11.58032 Z"
       style="fill:#cb3c33;fill-opacity:1;fill-rule:nonzero;stroke:none"
       transform="matrix(1.3333333,0,0,-1.3333333,28.942667,33.074667)" />
    <path
       id="path17"
       d="M 0,-0.00995 V -23.1308 c 0,-0.0055 0.00386,-0.0077 0.0086,-0.005 l 20.02398,11.56001 c 0.0048,0.0027 0.0086,0.0094 0.0086,0.01493 v 23.12083 c 0,0.0055 -0.0039,0.0077 -0.0086,0.005 L 0.0086,0.00496 C 0.00386,0.00223 0,-0.00446 0,-0.00995 Z"
       style="fill:#000000;fill-opacity:0.2;fill-rule:nonzero;stroke:#000000;stroke-width:0.49814;stroke-linecap:butt;stroke-linejoin:miter;stroke-miterlimit:10;stroke-dasharray:none;stroke-opacity:1"
       transform="matrix(1.3333333,0,0,-1.3333333,28.942667,33.074667)" />
    <path
       id="path18"
       d="M 0,-11.57037 20.0412,-4.1e-4"
       style="fill:none;stroke:#000000;stroke-width:0.49814;stroke-linecap:butt;stroke-linejoin:miter;stroke-miterlimit:10;stroke-dasharray:none;stroke-opacity:1"
       transform="matrix(1.3333333,0,0,-1.3333333,28.942667,33.074667)" />
    <path
       id="path19"
       d="M 10.02058,-5.7854 V 5.78497"
       style="fill:none;stroke:#000000;stroke-width:0.49814;stroke-linecap:butt;stroke-linejoin:miter;stroke-miterlimit:10;stroke-dasharray:none;stroke-opacity:1"
       transform="matrix(1.3333333,0,0,-1.3333333,28.942667,33.074667)" />
    <path
       id="path20"
       d="M 2.178625,-9.140625e-4 H 4.6981563 V -6.7274766 h 6.6796877 v -2.296875 H 4.6981563 v -5.8593754 h 8.8593747 v -2.296875 H 2.178625 Z M 22.900305,0.24517969 c 0.960937,0 2.226562,-0.046875 3.75,-0.33984375 L 26.333898,-2.3446641 c -1.066406,0.2109375 -2.085937,0.3398438 -3.152343,0.3398438 -2.578125,0 -4.195313,-1.125 -4.640625,-3.2695313 h 8.660156 c 0.04687,-0.515625 0.07031,-1.0429687 0.07031,-1.6523437 0,-3.9960937 -1.980468,-6.1406247 -5.4375,-6.1406247 -3.679687,0 -5.789062,2.4375 -5.789062,6.6328122 0,4.3007812 2.472656,6.67968749 6.855469,6.67968749 z M 18.44718,-7.2431016 c 0.199218,-2.2851562 1.417968,-3.5742184 3.410156,-3.5742184 1.933594,0 3.09375,1.2773434 3.09375,3.5742184 z m 16.986328,1.7226563 c 0,-3.4335938 1.066406,-5.3671877 3.246094,-5.3671877 1.230468,0 1.769531,0.773438 1.769531,2.6367189 h 2.542969 c 0,-3.3867189 -1.136719,-4.8164059 -3.785157,-4.8164059 -2.226562,0 -3.386718,1.160156 -3.527343,3.5273434 h -0.292969 l -0.433594,-3.2929684 h -4.453125 v 2.25 h 2.367188 v 8.3320309 h -2.847657 v 2.2500000375 h 8.566407 V -2.2509141 H 35.433508 Z M 45.502844,-9.140625e-4 H 56.905188 V -2.2509141 H 52.955969 V -12.832945 h -6.726563 v 2.25 h 4.160157 v 8.3320309 H 45.502844 Z M 51.596594,-14.860289 c 0.984375,0 1.792969,-0.796875 1.792969,-1.792969 0,-0.996094 -0.808594,-1.792969 -1.792969,-1.792969 -0.996094,0 -1.792969,0.796875 -1.792969,1.792969 0,0.996094 0.796875,1.792969 1.792969,1.792969 z M 64.361242,0.24517969 c 4.453125,0 6.363281,-1.1953125 6.363281,-3.94921879 0,-2.0625 -1.207031,-3 -3.890625,-3.65625 l -2.378906,-0.5742187 c -1.101562,-0.2695313 -1.617187,-0.515625 -1.617187,-1.265625 0,-1.1132812 1.207031,-1.5703122 4.089843,-1.5703122 0.9375,0 1.886719,0.04687 3.199219,0.164062 l 0.257813,-2.226562 c -1.136719,-0.164063 -2.15625,-0.234375 -3.386719,-0.234375 -4.792969,0 -6.820313,1.183593 -6.820313,3.9843747 0,1.9453125 1.148438,2.7304687 3.679688,3.375 l 2.953125,0.75 c 0.84375,0.2109375 1.253906,0.5273437 1.253906,1.3007812 0,1.1132813 -1.113281,1.59375 -3.703125,1.59375 -1.160156,0 -2.402344,-0.1171875 -4.089844,-0.3867187 l -0.292968,2.33203124 c 1.136718,0.2578125 2.449218,0.36328125 4.382812,0.36328125 z m 0,0"
       style="fill:#000000;fill-opacity:1;fill-rule:nonzero;stroke:#ffffff;stroke-opacity:1;stroke-width:0.99975002;stroke-dasharray:none;stroke-linejoin:round;stroke-linecap:round;paint-order:stroke markers fill"
       aria-label="Feris"
       transform="matrix(1.3333333,0,0,1.3333333,64.782667,45.552)" />
    <path
       id="path21"
       d="M 0.78532813,2.0968203 1.5353281,2.0499453 C 3.1759531,1.9327578 3.8907969,1.2413516 3.8907969,-0.41099219 V -4.6414609 H 1.1603281 v 0.8203125 h 1.8046875 v 3.55078121 c 0,0.94921875 -0.4101562,1.38281249 -1.3476562,1.46484379 L 0.75017188,1.2765078 Z M 3.3282969,-5.3797422 c 0.3632812,0 0.6445312,-0.28125 0.6445312,-0.6445312 0,-0.3632813 -0.28125,-0.6445313 -0.6445312,-0.6445313 -0.3632813,0 -0.6445313,0.28125 -0.6445313,0.6445313 0,0.3632812 0.28125,0.6445312 0.6445313,0.6445312 z m 5.2412109,5.46093751 c 0.5039063,0 0.9140625,-0.046875 1.3828125,-0.17578125 l -0.1054687,-0.8203125 c -0.3867188,0.1171875 -0.6679688,0.1640625 -0.9257813,0.1640625 -0.796875,0 -0.9492187,-0.30468746 -0.9492187,-1.04296876 V -6.5633359 H 5.6866953 v 0.8085937 h 1.359375 v 4.0078125 c 0,1.27734376 0.4453125,1.82812501 1.5234375,1.82812501 z m 0,0"
       style="fill:#4063d8;fill-opacity:1;fill-rule:nonzero;stroke:#ffffff;stroke-opacity:1;stroke-width:0.99975002;stroke-dasharray:none;paint-order:stroke markers fill;stroke-linejoin:round;stroke-linecap:round"
       aria-label="jl"
       transform="matrix(1.3333333,0,0,1.3333333,161.60133,49.825333)" />
  </g>
</svg>
